<svg width="418" height="70" viewBox="0 0 418 70" fill="none" xmlns="http://www.w3.org/2000/svg">
<path d="M9.88 69.08C6.41333 69.08 3.93333 68.0933 2.44 66.12C0.946667 64.0933 0.2 61.1067 0.2 57.16C0.2 53.16 1.88 41.88 5.24 23.32L1 14.76C7.02667 10.8667 12.52 8.92 17.48 8.92C21.5867 8.92 23.64 11.4267 23.64 16.44C23.64 18.0933 22.6 24.2533 20.52 34.92C18.4933 45.5333 17.48 51.8533 17.48 53.88C17.48 59.0533 18.28 62.92 19.88 65.48C16.68 67.88 13.3467 69.08 9.88 69.08ZM31.6156 69C28.469 69 26.149 68.1733 24.6556 66.52C23.1623 64.8667 22.4156 62.68 22.4156 59.96C22.4156 57.24 22.949 52.8133 24.0156 46.68C25.1356 40.5467 26.2823 34.9467 27.4556 29.88L23.2956 23.48C28.5756 20.4933 33.4556 19 37.9356 19C42.4156 19 44.6556 21.0267 44.6556 25.08C44.6556 27.7467 44.0423 30.4667 42.8156 33.24L43.6156 33.64C49.3223 23.88 56.5756 19 65.3756 19C71.829 19 75.0556 22.2267 75.0556 28.68C75.0556 31.4533 74.2556 36.1467 72.6556 42.76C71.109 49.3733 70.3356 54.36 70.3356 57.72C70.3356 61.08 70.8956 63.5333 72.0156 65.08C69.189 67.6933 66.2023 69 63.0556 69C56.9223 69 53.8556 65.6933 53.8556 59.08C53.8556 56.6267 54.6556 52.4667 56.2556 46.6C57.8556 40.7333 58.6556 36.92 58.6556 35.16C58.6556 32.76 57.749 31.56 55.9356 31.56C54.4423 31.56 52.7356 32.2267 50.8156 33.56C48.8956 34.84 47.029 36.6 45.2156 38.84C43.4556 41.0267 41.9623 43.8267 40.7356 47.24C39.509 50.6 38.8956 54.04 38.8956 57.56C38.8956 61.0267 39.4556 63.5333 40.5756 65.08C37.749 67.6933 34.7623 69 31.6156 69Z" fill="#A40000"/>
<path d="M126.081 33.24L126.881 33.64C132.587 23.88 139.574 19 147.841 19C154.294 19 157.521 22.2267 157.521 28.68C157.521 31.4533 156.721 36.1467 155.121 42.76C153.574 49.3733 152.801 54.36 152.801 57.72C152.801 61.08 153.361 63.5333 154.481 65.08C151.654 67.6933 148.667 69 145.521 69C139.387 69 136.321 65.6933 136.321 59.08C136.321 56.6267 137.121 52.4667 138.721 46.6C140.321 40.7333 141.121 36.92 141.121 35.16C141.121 32.76 140.214 31.56 138.401 31.56C136.907 31.56 135.227 32.2267 133.361 33.56C131.547 34.84 129.787 36.6 128.081 38.84C126.427 41.0267 125.014 43.8267 123.841 47.24C122.721 50.6 122.161 54.04 122.161 57.56C122.161 61.0267 122.721 63.5333 123.841 65.08C121.014 67.6933 118.027 69 114.881 69C108.747 69 105.681 65.6933 105.681 59.08C105.681 56.6267 106.481 52.4667 108.081 46.6C109.681 40.7333 110.481 36.92 110.481 35.16C110.481 32.76 109.574 31.56 107.761 31.56C106.267 31.56 104.587 32.2267 102.721 33.56C100.907 34.84 99.1473 36.6 97.4406 38.84C95.7873 41.0267 94.374 43.8267 93.2006 47.24C92.0806 50.6 91.5206 54.04 91.5206 57.56C91.5206 61.0267 92.0806 63.5333 93.2006 65.08C90.374 67.6933 87.3873 69 84.2406 69C78.1073 69 75.0406 65.6933 75.0406 59.08C75.0406 56.9467 75.574 52.8133 76.6406 46.68C77.7606 40.5467 78.9073 34.9467 80.0806 29.88L75.9206 23.48C81.2006 20.4933 86.0806 19 90.5606 19C95.0406 19 97.2806 21.0267 97.2806 25.08C97.2806 27.7467 96.6673 30.4667 95.4406 33.24L96.2406 33.64C101.947 23.88 108.934 19 117.201 19C120.187 19 122.534 19.7467 124.241 21.24C126.001 22.7333 126.881 24.9733 126.881 27.96C126.881 29.56 126.614 31.32 126.081 33.24ZM179.589 69C172.283 69 166.629 67.1067 162.629 63.32C158.683 59.5333 156.709 54.4133 156.709 47.96C156.709 39.3733 159.643 32.4133 165.509 27.08C171.429 21.6933 178.843 19 187.749 19C192.709 19 196.469 20.12 199.029 22.36C201.589 24.5467 202.869 27.4533 202.869 31.08C202.869 36.04 200.443 40.1733 195.589 43.48C190.789 46.7333 183.349 48.3867 173.269 48.44C173.429 51.8533 174.203 54.5467 175.589 56.52C176.976 58.44 178.709 59.4 180.789 59.4C182.869 59.4 184.656 58.7067 186.149 57.32C187.696 55.9333 188.469 53.6667 188.469 50.52C196.256 50.52 200.149 52.36 200.149 56.04C200.149 59.1867 198.229 62.1467 194.389 64.92C190.549 67.64 185.616 69 179.589 69ZM186.389 28.36C183.669 28.36 181.163 29.72 178.869 32.44C176.629 35.16 175.003 38.36 173.989 42.04C179.323 41.6133 183.323 40.4133 185.989 38.44C188.709 36.4133 190.069 34.28 190.069 32.04C190.069 30.9733 189.723 30.0933 189.029 29.4C188.389 28.7067 187.509 28.36 186.389 28.36ZM232.248 61.16L231.448 60.76C227.288 66.2533 222.328 69 216.568 69C212.301 69 208.674 67.32 205.688 63.96C202.754 60.5467 201.288 55.96 201.288 50.2C201.288 43.0533 203.794 36.5467 208.808 30.68C211.261 27.8 214.541 25.48 218.648 23.72C222.754 21.9067 227.341 21 232.408 21C233.368 21 235.074 21.1067 237.528 21.32C237.634 20.2 237.874 18.84 238.248 17.24L233.768 10.84C240.434 6.94666 245.688 5 249.528 5C251.714 5 253.261 5.45333 254.168 6.36C255.074 7.21333 255.528 8.86666 255.528 11.32C255.528 13.72 254.328 20.5467 251.928 31.8C249.581 43.0533 248.408 51.0533 248.408 55.8C248.408 60.4933 249.234 63.5867 250.888 65.08C247.901 67.6933 244.781 69 241.528 69C238.328 69 235.981 68.2 234.488 66.6C232.994 64.9467 232.248 63.1333 232.248 61.16ZM216.328 47.16C216.328 50.2 217.101 52.6 218.648 54.36C220.248 56.12 222.221 57 224.568 57C227.608 57 230.381 55.56 232.888 52.68C233.741 43.1867 234.941 34.9733 236.488 28.04C230.354 28.04 225.448 30.0133 221.768 33.96C218.141 37.9067 216.328 42.3067 216.328 47.16ZM279.771 6.36C279.771 8.38666 278.705 10.1467 276.571 11.64C274.438 13.08 272.011 13.8 269.291 13.8C266.571 13.8 264.411 13.2667 262.811 12.2C261.265 11.1333 260.491 9.69333 260.491 7.88C260.491 5.42666 261.638 3.50666 263.931 2.12C266.225 0.733331 268.651 0.039999 271.211 0.039999C273.771 0.039999 275.825 0.573332 277.371 1.64C278.971 2.70666 279.771 4.28 279.771 6.36ZM264.171 69C260.865 69 258.465 68.1733 256.971 66.52C255.478 64.8667 254.731 62.36 254.731 59C254.731 55.5867 256.438 46.4933 259.851 31.72L255.371 25C262.038 21 267.291 19 271.131 19C273.318 19 274.865 19.48 275.771 20.44C276.678 21.3467 277.131 22.84 277.131 24.92C277.131 25.72 276.145 30.4133 274.171 39C272.198 47.5867 271.211 53.72 271.211 57.4C271.211 61.08 272.038 63.64 273.691 65.08C270.705 67.6933 267.531 69 264.171 69ZM276.147 47.96C276.147 39.4267 279.08 32.4667 284.947 27.08C290.814 21.6933 298.2 19 307.107 19C311.694 19 315.32 19.88 317.987 21.64C320.654 23.3467 321.987 25.5067 321.987 28.12C321.987 30.7333 321.08 32.7333 319.267 34.12C317.507 35.5067 315.56 36.2 313.427 36.2C311.347 36.2 309.427 35.64 307.667 34.52C305.96 33.4 304.627 31.7733 303.667 29.64C300.307 31.0267 297.64 33.48 295.667 37C293.747 40.52 292.787 44.04 292.787 47.56C292.787 51.08 293.48 53.9333 294.867 56.12C296.254 58.3067 298.067 59.4 300.307 59.4C302.547 59.4 304.36 58.6533 305.747 57.16C307.187 55.6667 307.907 53.4533 307.907 50.52C315.694 50.52 319.587 52.36 319.587 56.04C319.587 59.1867 317.614 62.1467 313.667 64.92C309.72 67.64 304.52 69 298.067 69C291.614 69 286.334 67.08 282.227 63.24C278.174 59.3467 276.147 54.2533 276.147 47.96ZM342.043 69C334.736 69 329.083 67.1067 325.083 63.32C321.136 59.5333 319.163 54.4133 319.163 47.96C319.163 39.3733 322.096 32.4133 327.963 27.08C333.883 21.6933 341.296 19 350.203 19C355.163 19 358.923 20.12 361.483 22.36C364.043 24.5467 365.323 27.4533 365.323 31.08C365.323 36.04 362.896 40.1733 358.043 43.48C353.243 46.7333 345.803 48.3867 335.723 48.44C335.883 51.8533 336.656 54.5467 338.043 56.52C339.429 58.44 341.163 59.4 343.243 59.4C345.323 59.4 347.109 58.7067 348.603 57.32C350.149 55.9333 350.923 53.6667 350.923 50.52C358.709 50.52 362.602 52.36 362.602 56.04C362.602 59.1867 360.683 62.1467 356.843 64.92C353.003 67.64 348.069 69 342.043 69ZM348.843 28.36C346.123 28.36 343.616 29.72 341.323 32.44C339.083 35.16 337.456 38.36 336.443 42.04C341.776 41.6133 345.776 40.4133 348.443 38.44C351.163 36.4133 352.523 34.28 352.523 32.04C352.523 30.9733 352.176 30.0933 351.483 29.4C350.843 28.7067 349.963 28.36 348.843 28.36ZM373.741 69C370.594 69 368.274 68.1733 366.781 66.52C365.287 64.8667 364.541 62.68 364.541 59.96C364.541 57.24 365.074 52.8133 366.141 46.68C367.261 40.5467 368.407 34.9467 369.581 29.88L365.421 23.48C370.701 20.4933 375.581 19 380.061 19C384.541 19 386.781 21.0267 386.781 25.08C386.781 27.7467 386.167 30.4667 384.941 33.24L385.741 33.64C391.447 23.88 398.701 19 407.501 19C413.954 19 417.181 22.2267 417.181 28.68C417.181 31.4533 416.381 36.1467 414.781 42.76C413.234 49.3733 412.461 54.36 412.461 57.72C412.461 61.08 413.021 63.5333 414.141 65.08C411.314 67.6933 408.327 69 405.181 69C399.047 69 395.981 65.6933 395.981 59.08C395.981 56.6267 396.781 52.4667 398.381 46.6C399.981 40.7333 400.781 36.92 400.781 35.16C400.781 32.76 399.874 31.56 398.061 31.56C396.567 31.56 394.861 32.2267 392.941 33.56C391.021 34.84 389.154 36.6 387.341 38.84C385.581 41.0267 384.087 43.8267 382.861 47.24C381.634 50.6 381.021 54.04 381.021 57.56C381.021 61.0267 381.581 63.5333 382.701 65.08C379.874 67.6933 376.887 69 373.741 69Z" fill="#002A6B"/>
</svg>
